<?xml version="1.0" encoding="utf-8"?>
<!-- Generator: Adobe Illustrator 19.0.0, SVG Export Plug-In . SVG Version: 6.00 Build 0)  -->
<svg version="1.1" id="Layer_1" xmlns="http://www.w3.org/2000/svg" xmlns:xlink="http://www.w3.org/1999/xlink" x="0px" y="0px"
	 viewBox="-247 358.9 100 125" style="enable-background:new -247 358.9 100 125;" xml:space="preserve">
<g>
	<path d="M-202,433.9c0-8.8,3.8-16.6,9.7-22.1c0.7-0.6,0.5-1.7-0.3-2.1h-0.1c-2.4-1.2-2.7-4.5-0.5-6c4.8-3.6,8-9.4,8-15.9v-8.5
		c0-10.9-8.4-20-19.1-20.4c-11.3-0.4-20.5,8.6-20.5,19.8v9c0,6.5,3.1,12.3,8,15.9c2.1,1.6,1.8,4.9-0.6,6.1c-0.6,0.3-1.2,0.6-1.7,1
		l-19.6,12.3c-14.4,9.2-9.8,25.9,11.6,25.9h26.9c1,0,1.6-1,1.2-1.9C-200.9,443-202,438.6-202,433.9z"/>
	<path d="M-172,408.9c-13.8,0-25,11.2-25,25c0,13.8,11.2,25,25,25s25-11.2,25-25C-147,420.1-158.2,408.9-172,408.9z M-160.6,436.2
		h-9.1v0.5v8.6c0,1.3-1,2.3-2.3,2.3s-2.3-1-2.3-2.3v-9.1h-9.1c-1.3,0-2.3-1-2.3-2.3c0-1.3,1-2.3,2.3-2.3h9.1v-9.1
		c0-1.3,1-2.3,2.3-2.3s2.3,1,2.3,2.3v9.1h9.1c1.3,0,2.3,1,2.3,2.3C-158.3,435.2-159.4,436.2-160.6,436.2z"/>
</g>
</svg>
