<?xml version="1.0" encoding="UTF-8"?>
<svg width="207px" height="241px" viewBox="0 0 207 241" version="1.1" xmlns="http://www.w3.org/2000/svg" xmlns:xlink="http://www.w3.org/1999/xlink">
    <!-- Generator: Sketch 41.2 (35397) - http://www.bohemiancoding.com/sketch -->
    <title>Untitled</title>
    <desc>Created with Sketch.</desc>
    <defs>
        <polygon id="path-1" points="206.458 120.1242 206.458 240.248 0 240.248 0 120.1242 0 0.0004 206.458 0.0004 206.458 120.1242"></polygon>
    </defs>
    <g id="Page-1" stroke="none" stroke-width="1" fill="none" fill-rule="evenodd">
        <g>
            <mask id="mask-2" fill="white">
                <use xlink:href="#path-1"></use>
            </mask>
            <g id="Clip-2"></g>
            <path d="M43.709,90.2094 C55.18,90.2094 65.409,86.4894 71.919,81.5294 C66.339,70.3694 53.939,53.0094 31.93,53.0094 C21.699,53.0094 13.64,59.2094 13.64,68.8194 C13.64,78.7394 26.659,90.2094 43.709,90.2094 M206.458,93.9294 C206.458,128.6494 162.748,240.2484 116.869,240.2484 C85.249,240.2484 85.249,197.4684 85.249,163.9884 C85.249,142.9094 85.249,114.6994 76.569,93.6194 C67.89,100.1294 56.109,103.2294 43.709,103.2294 C18.909,103.2294 0,87.1094 0,68.8194 C0,52.0794 13.02,40.2994 31.93,40.2994 C60.76,40.2994 75.949,60.7594 81.219,70.6794 C85.559,63.2394 87.109,53.3194 87.109,44.6394 C87.109,28.5204 75.949,16.4304 64.789,13.6404 C61.689,12.7094 59.52,9.9194 59.52,6.8204 C59.52,2.7904 62.619,0.0004 66.339,0.0004 C73.779,0.0004 101.369,13.9504 101.369,44.6394 C101.369,59.5194 96.719,73.1594 87.419,84.3194 C98.889,107.5694 98.889,141.0484 98.889,163.6784 C98.889,203.6684 101.989,227.5384 117.799,227.5384 C149.419,227.5384 192.508,129.5794 192.508,93.9294 C192.508,78.7394 187.548,58.5894 159.959,58.5894 C156.238,58.5894 153.139,56.1094 153.139,52.3894 C153.139,48.3594 156.238,45.2594 159.959,45.2594 C190.648,45.2594 206.458,65.7194 206.458,93.9294" id="Fill-1" fill="#007AFF" mask="url(#mask-2)"></path>
        </g>
    </g>
</svg>