<?xml version="1.0" encoding="utf-8"?>
<!-- Generator: Adobe Illustrator 19.0.0, SVG Export Plug-In . SVG Version: 6.00 Build 0)  -->
<svg version="1.1" id="Layer_1" xmlns="http://www.w3.org/2000/svg" xmlns:xlink="http://www.w3.org/1999/xlink" x="0px" y="0px"
	 viewBox="0 0 206 240" style="enable-background:new 0 0 206 240;" xml:space="preserve">
<style type="text/css">
	.st0{fill:#8C8C8C;stroke:#8C8C8C;stroke-width:4;stroke-miterlimit:10;}
</style>
<g id="XMLID_1_">
	<path id="XMLID_2_" class="st0" d="M200.9,95.1c0,33-41.5,138.9-85.1,138.9c-30,0-30-40.6-30-72.4c0-20,0-46.8-8.2-66.8
		c-8.2,6.2-19.4,9.1-31.2,9.1C22.8,104,4.8,88.6,4.8,71.3c0-15.9,12.4-27.1,30.3-27.1C62.5,44.2,76.9,63.6,82,73
		c4.1-7.1,5.6-16.5,5.6-24.7c0-15.3-10.6-26.8-21.2-29.4c-2.9-0.9-5-3.5-5-6.5c0-3.8,2.9-6.5,6.5-6.5c7.1,0,33.3,13.2,33.3,42.4
		c0,14.1-4.4,27.1-13.2,37.7c10.9,22.1,10.9,53.9,10.9,75.4c0,38,2.9,60.6,18,60.6c30,0,70.9-93,70.9-126.9
		c0-14.4-4.7-33.6-30.9-33.6c-3.5,0-6.5-2.4-6.5-5.9c0-3.8,2.9-6.8,6.5-6.8C185.9,48.9,200.9,68.3,200.9,95.1z M46.3,91.6
		c10.9,0,20.6-3.5,26.8-8.2c-5.3-10.6-17.1-27.1-38-27.1c-9.7,0-17.4,5.9-17.4,15C17.8,80.7,30.1,91.6,46.3,91.6z"/>
</g>
</svg>
